HIERARCHY
ROOT pelvis
{
  OFFSET 0 100 0
  CHANNELS 6 Xposition Yposition Zposition Zrotation Xrotation Yrotation
  JOINT pelvis_right_femur
  {
    OFFSET -10.78128 -3.44521 -0.5502486
    CHANNELS 3 Zrotation Xrotation Yrotation
    JOINT right_femur_tibia
    {
      OFFSET -0.8047443 -44.0398 -0.1307829
      CHANNELS 3 Zrotation Xrotation Yrotation
      JOINT right_tibia_foot
      {
        OFFSET 3.006224 -47.83518 -5
        CHANNELS 3 Zrotation Xrotation Yrotation
        End Site
        {
          OFFSET 0 -5 15
        }
      }
    }
  }
  JOINT pelvis_left_femur
  {
    OFFSET 10.78128 -3.44521 -0.5502486
    CHANNELS 3 Zrotation Xrotation Yrotation
    JOINT left_femur_tibia
    {
      OFFSET 0.8047443 -44.0398 -0.1307829
      CHANNELS 3 Zrotation Xrotation Yrotation
      JOINT left_tibia_foot
      {
        OFFSET -4.370144 -48.10324 -4.275266
        CHANNELS 3 Zrotation Xrotation Yrotation
        End Site
        {
          OFFSET 0 -5 15
        }
      }
    }
  }
  JOINT pelvis_spine1
  {
    OFFSET 0 6.468898 -3.129235
    CHANNELS 3 Zrotation Xrotation Yrotation
    JOINT spine1
    {
      OFFSET 0 23.15396 4.99043
      CHANNELS 3 Zrotation Xrotation Yrotation
      JOINT spine2
      {
        OFFSET 0 20.79997 -5.064912
        CHANNELS 3 Zrotation Xrotation Yrotation
        JOINT neck
        {
          OFFSET 0 14.38658 9.616178
          CHANNELS 3 Zrotation Xrotation Yrotation
          End Site
          {
            OFFSET 0 20 0
          }
        }
      }
      JOINT right_manubrium
      {
        OFFSET -5.722621 16.35077 3.967754
        CHANNELS 3 Zrotation Xrotation Yrotation
        JOINT right_clavicle
        {
          OFFSET -13.16364 1.694482 -4.693211
          CHANNELS 3 Zrotation Xrotation Yrotation
          JOINT right_humerus
          {
            OFFSET -28.5034 -0.3100689 -2.792744
            CHANNELS 3 Zrotation Xrotation Yrotation
            JOINT right_radius
            {
              OFFSET -25.15693 0.02248979 -1.271978
              CHANNELS 3 Zrotation Xrotation Yrotation
              End Site
              {
                OFFSET -15 0 0
              }
            }
          }
        }
      }
      JOINT left_manubrium
      {
        OFFSET 5.722621 16.35077 3.967754
        CHANNELS 3 Zrotation Xrotation Yrotation
        JOINT left_clavicle
        {
          OFFSET 13.16364 1.694482 -4.693211
          CHANNELS 3 Zrotation Xrotation Yrotation
          JOINT left_humerus
          {
            OFFSET 29.39168 -1.063119 -2.237045
            CHANNELS 3 Zrotation Xrotation Yrotation
            JOINT left_radius
            {
              OFFSET 24.59957 -0.9528479 0.9047498
              CHANNELS 3 Zrotation Xrotation Yrotation
              End Site
              {
                OFFSET 15 -0 -0
              }
            }
          }
        }
      }
    }
  }
}
MOTION
Frames: 17
Frame Time: 0.0416666666667
0 103.5113 0 0.09089458 -0.6737912 0.04562488 4.357495 -21.24843 8.42694 -0 37.19619 -0 -6.3454 -14.84741 -2.996757 -6.406031 11.23781 -21.85262 -0 6.12789 -0 9.159239 -16.89908 25.77199 -3.311941 -2.593859 3.750037 2.581677 9.337272 -7.603987 1.415934 22.20271 7.064086 3.189616 -24.35358 9.761181 6.000083 -18.96531 11.54059 85.7292 34.72659 -18.78366 -0 0 14.77361 -7.830006 8.485172 4.722363 6.25447 -19.85354 -1.439941 -92.5314 25.70536 19.84244 0 0 -15.86673 11.35805 17.13838 0.8488892
0.2597884 103.1976 2.134737 -0.1297683 -0.7792248 0.1040394 4.33863 -22.32099 7.640214 -0 36.43903 -0 -6.587168 -13.61776 -2.77525 -6.129086 11.48135 -21.09927 -0 6.248734 -0 8.32917 -17.52494 24.81541 -3.170603 -2.368365 3.447744 2.610223 9.39222 -7.705262 1.315905 22.17227 7.210943 3.322175 -24.29688 9.650566 5.890898 -18.72825 11.63339 85.81822 33.9301 -18.95952 -0 0 14.24476 -8.743323 8.718176 5.08567 6.477923 -20.31534 -1.553538 -92.1306 25.29352 19.2057 0 0 -16.09281 11.58457 17.41216 0.3932754
0.5252186 102.7372 4.275635 0.01680005 0.5976044 0.1685713 5.209628 -24.14139 8.613011 -0 31.5519 -0 -5.613516 -14.37781 -2.794305 -6.560952 11.5974 -21.84093 -0 5.820005 -0 9.47542 -18.5491 26.20477 -3.571695 -2.414526 4.030857 3.050912 9.011552 -7.676713 1.691077 21.69463 6.912139 3.158436 -25.14806 10.09082 5.918415 -18.84857 11.27913 85.3911 35.26055 -18.94821 -0 0 15.11527 -6.98365 8.461981 4.363237 6.846774 -19.71089 -0.7853827 -92.88151 25.35773 19.90014 0 0 -16.23592 11.55031 16.4174 0.5693415
0.7927949 102.135 6.623936 -0.1959702 1.033398 0.2694882 5.540961 -25.99925 8.152543 -0 29.12103 -0 -5.596632 -13.20331 -2.534643 -6.399584 11.96842 -21.22584 -0 5.895642 -0 8.984158 -19.49003 25.56313 -3.515805 -2.211608 3.9069 3.229185 8.968827 -7.806064 1.684864 21.45393 6.998805 3.245632 -25.45687 10.13658 5.80576 -18.65467 11.26098 85.44136 34.97552 -19.22235 -0 0 14.77142 -7.306815 8.625723 4.480574 7.176603 -20.05255 -0.6603314 -92.58104 24.8729 19.3812 0 0 -16.75621 11.87873 16.21718 0.0700941
1.058814 101.4332 9.217142 -0.4205645 1.720523 0.4281048 6.065095 -28.12263 7.8929 -0 26.14269 -0 -5.498772 -11.98777 -2.267558 -6.281576 12.42907 -20.66736 -0 6.049387 -0 8.56609 -20.50036 25.00572 -3.47102 -2.033849 3.848596 3.465155 8.887439 -7.958019 1.704926 21.1087 7.073696 3.315069 -25.94499 10.2495 5.69598 -18.48865 11.1912 85.51653 34.98347 -19.5649 -0 0 14.49538 -7.333015 8.747667 4.482168 7.505651 -20.3297 -0.4454563 -92.32491 24.41872 18.95828 0 0 -17.46616 12.1425 15.75487 -0.3026005
1.319539 100.6398 12.13439 -0.7369643 2.239474 0.6559654 6.477446 -30.24584 7.300968 -0 23.54357 -0 -5.645045 -10.36829 -1.928304 -6.032407 13.00214 -19.74838 -0 6.5539 -0 7.680769 -21.3974 23.8567 -3.283145 -1.817537 3.631834 3.637306 8.859592 -8.142962 1.636944 20.80748 7.234332 3.436575 -26.31221 10.27164 5.535093 -18.21677 11.1855 85.75924 34.62826 -20.03645 -0 0 13.87208 -7.795774 8.96109 4.650315 7.819915 -20.82322 -0.3724356 -91.79983 23.80717 18.20469 0 0 -18.35521 12.53296 15.41147 -0.8888745
1.571327 99.79514 15.44824 -1.109156 2.800831 0.9698489 6.947386 -32.34296 6.684806 -0 20.93965 -0 -5.892741 -8.595437 -1.564356 -5.746142 13.68051 -18.68403 -0 7.504413 -0 6.516706 -22.134 22.3908 -2.997617 -1.616018 3.372883 3.793771 8.82524 -8.348162 1.535776 20.4795 7.427577 3.567033 -26.6972 10.27733 5.344121 -17.89786 11.17586 86.135 34.26936 -20.62806 -0 0 13.09707 -8.275076 9.183971 4.82248 8.084781 -21.3565 -0.3329286 -91.18564 23.18229 17.37537 0 0 -19.43876 12.87786 14.96306 -1.424248
1.81201 98.9499 19.23909 -1.53802 3.319318 1.378475 7.432903 -34.13174 6.019197 -0 18.59938 -0 -6.296362 -6.750728 -1.189136 -5.414384 14.4156 -17.44532 -0 9.197872 -0 4.981428 -22.49211 20.51042 -2.568701 -1.445861 3.060879 3.898323 8.79237 -8.558416 1.387202 20.16136 7.653851 3.702081 -27.03002 10.23767 5.109859 -17.51767 11.1718 86.69006 33.84443 -21.34564 -0 0 12.12275 -8.819502 9.416839 5.018544 8.250949 -21.92046 -0.3699827 -90.47139 22.55741 16.47142 0 0 -20.68181 13.15198 14.44098 -1.884438
2.043704 98.19674 23.58951 -2.020333 3.778775 1.88232 7.977566 -35.2621 5.42542 -0 16.74984 -0 -6.860907 -5.019817 -0.8431788 -5.049635 15.09623 -16.09418 -0 12.07045 -0 3.05416 -22.18636 18.23002 -1.959333 -1.337294 2.733189 3.9343 8.759481 -8.759402 1.192616 19.85743 7.896937 3.821716 -27.30303 10.14908 4.840639 -17.09813 11.16411 87.44663 33.4512 -22.17837 -0 0 11.00671 -9.316978 9.638865 5.205667 8.232019 -22.42669 -0.4934395 -89.72695 22.02665 15.64515 0 0 -22.00735 13.211 13.78895 -2.067546
2.278367 97.67111 28.55706 -2.534006 4.093695 2.453912 8.57766 -35.18916 5.026946 -0 15.77868 -0 -7.582737 -3.696428 -0.5840328 -4.659552 15.43714 -14.7211 -0 16.69589 -0 0.8103658 -20.81765 15.65558 -1.142302 -1.311512 2.456431 3.874841 8.753791 -8.922994 0.954145 19.59513 8.129446 3.902744 -27.47635 9.993595 4.562861 -16.68583 11.1635 88.38689 33.17851 -23.0585 -0 0 9.86167 -9.692484 9.844264 5.381224 7.923211 -22.76519 -0.7264306 -89.05715 21.67435 15.1207 0 0 -23.20315 12.9208 12.98311 -1.769027
2.543535 97.54377 34.13143 -3.028464 4.181415 3.02422 9.185879 -33.37107 4.956904 -0 15.95953 -0 -8.395886 -3.126079 -0.4711738 -4.252145 14.92916 -13.46675 -0 23.60565 -0 -1.503933 -18.05422 13.06477 -0.1527903 -1.352926 2.354325 3.71955 8.83143 -9.015886 0.6853295 19.3924 8.309951 3.926854 -27.54507 9.755875 4.352208 -16.37038 11.20279 89.38612 33.19098 -23.84011 -0 0 8.916055 -9.875404 10.05434 5.571861 7.241638 -22.80384 -1.063892 -88.64071 21.56716 15.23535 0 0 -23.91955 12.15534 11.98877 -0.7690695
2.878086 97.95935 40.18554 -3.398463 3.98106 3.481985 9.628759 -29.60283 5.20431 -0 17.08167 -0 -9.159533 -3.512601 -0.5105921 -3.846143 12.93356 -12.44199 -0 32.79098 -0 -3.498663 -13.98081 10.85777 0.8406411 -1.375283 2.580999 3.511927 9.065102 -9.002518 0.4099822 19.26686 8.39183 3.90132 -27.53711 9.414885 4.328103 -16.25385 11.347 90.18101 33.65336 -24.30863 -0 0 8.429334 -9.913308 10.33048 5.862513 6.223451 -22.48215 -1.456355 -88.66138 21.67561 16.25829 0 0 -23.81206 10.91849 10.81057 0.9762942
3.30637 98.94163 46.47783 -3.488446 3.481675 3.713062 9.658938 -24.33494 5.533036 -0 18.22122 -0 -9.706914 -4.680601 -0.6129465 -3.482505 9.090527 -11.60887 -0 43.19992 -0 -4.842222 -9.376032 9.366094 1.53444 -1.248407 3.224939 3.324623 9.483514 -8.85622 0.1553928 19.25648 8.339471 3.859804 -27.46879 8.942579 4.575022 -16.37452 11.658 90.46927 34.59458 -24.27266 -0 0 8.483606 -10.02313 10.72903 6.355044 5.076071 -21.91406 -1.825257 -89.12614 21.868 18.06116 0 0 -22.89288 9.400754 9.549865 3.190734
3.805347 100.3412 52.73455 -3.166135 2.678832 3.660859 9.149227 -18.46969 5.620353 -0 18.24253 -0 -9.942541 -6.143537 -0.6566972 -3.189859 3.724541 -10.77141 -0 52.88809 -0 -5.439525 -5.427619 8.753808 1.652844 -0.9101355 4.214299 3.186066 10.03115 -8.567169 -0.04590665 19.43611 8.137211 3.820504 -27.25328 8.336847 5.001621 -16.67711 12.11503 90.12087 35.75124 -23.65396 -0 0 8.890268 -10.49663 11.21025 7.064621 4.090075 -21.3711 -2.117323 -89.73621 22.00243 19.98631 0 0 -21.68656 7.926217 8.424093 5.319838
4.310054 101.8906 58.74533 -2.442661 1.572806 3.359707 8.217123 -12.74047 5.328821 -0 16.65876 -0 -9.86584 -7.511949 -0.5876399 -2.91428 -2.383195 -9.737515 -0 59.90789 -0 -5.430503 -2.983917 9.064111 1.170834 -0.4303433 5.360627 3.034501 10.62274 -8.143869 -0.1586829 19.84002 7.805595 3.761922 -26.75085 7.675242 5.338024 -17.12524 12.59396 89.24554 36.65705 -22.46592 -0 0 9.485652 -11.50127 11.64028 7.895673 3.471022 -21.0903 -2.323658 -90.11936 22.00842 21.34629 0 0 -20.79982 6.788672 7.625842 6.844445
4.766541 103.3024 64.39615 -1.497104 0.2952801 2.915337 7.127287 -7.42064 4.781756 -0 13.77052 -0 -9.489262 -8.72289 -0.3884688 -2.510318 -8.65613 -8.43634 -0 62.93754 -0 -5.036297 -2.142904 10.18734 0.3280769 0.06279341 6.495915 2.778313 11.21218 -7.614604 -0.1872651 20.35383 7.423016 3.667259 -25.96446 7.07904 5.364924 -17.80888 12.98239 88.01539 37.01168 -20.74029 -0 0 10.43044 -13.01077 11.92849 8.783467 3.261847 -21.11146 -2.454329 -90.19092 21.8441 22.05756 0 0 -20.4351 6.101929 7.143626 7.590186
5.179225 104.3241 69.66743 -0.5779758 -0.8291717 2.444044 6.13607 -2.550208 4.202711 -0 10.16923 -0 -8.791346 -9.887114 -0.009943124 -1.791386 -14.91737 -6.86882 -0 61.33062 -0 -4.387978 -2.450485 11.80977 -0.5557043 0.4618592 7.528238 2.390461 11.78326 -7.043904 -0.2081931 20.73864 7.105922 3.55997 -25.09821 6.60798 5.106012 -18.87167 13.28097 86.49746 36.9276 -18.51931 -0 0 12.04879 -14.89602 12.11944 9.807202 3.381269 -21.31487 -2.517255 -90.1283 21.4292 22.59099 0 0 -20.46007 5.805734 6.779458 7.716406
